<?xml version="1.0" encoding="iso-8859-1"?>
<!-- Generator: Adobe Illustrator 19.0.0, SVG Export Plug-In . SVG Version: 6.00 Build 0)  -->
<svg version="1.1" id="Capa_1" xmlns="http://www.w3.org/2000/svg" xmlns:xlink="http://www.w3.org/1999/xlink" x="0px" y="0px"
	 viewBox="0 0 508.1 508.1" style="enable-background:new 0 0 508.1 508.1;" xml:space="preserve">
<g>
	<g>
		<path d="M301.8,416.9c51.6-61.7,132.5-169,132.5-236.6C434.4,80.9,353.5,0,254.1,0S73.8,80.9,73.8,180.3
			c0,67.6,80.9,174.9,132.5,236.6c-26.4,8.7-42.4,24.2-42.4,42c0,27.6,39.6,49.2,90.1,49.2s90.1-21.6,90.1-49.2
			C344.2,441.2,328.2,425.6,301.8,416.9z M90.2,180.3c0-90.4,73.5-163.9,163.9-163.9S418,89.9,418,180.3
			c0,80.9-133.7,233.2-163.9,266.5C224,413.4,90.2,261.1,90.2,180.3z M254.1,491.6c-43.5,0-73.7-17.3-73.7-32.8
			c0-11.1,15.3-22.3,37.6-28.2c16.6,19.3,28.4,31.9,30.1,33.8l6,6.4l6-6.4c1.8-1.9,13.5-14.5,30.2-33.9c22.5,6,37.6,17.2,37.6,28.3
			C327.8,474.3,297.6,491.6,254.1,491.6z"/>
	</g>
</g>
<g>
	<g>
		<path d="M254.1,73.8c-58.7,0-106.5,47.8-106.5,106.5s47.8,106.5,106.5,106.5S360.6,239,360.6,180.3S312.8,73.8,254.1,73.8z
			 M254.1,270.4c-49.7,0-90.1-40.4-90.1-90.1s40.4-90.1,90.1-90.1s90.1,40.4,90.1,90.1S303.8,270.4,254.1,270.4z"/>
	</g>
</g>
<g>
	<g>
		<rect x="245.9" y="385.1" width="16.4" height="16.4"/>
	</g>
</g>
<g>
	<g>
		<rect x="245.9" y="352.3" width="16.4" height="16.4"/>
	</g>
</g>
<g>
	<g>
		<rect x="245.9" y="319.5" width="16.4" height="16.4"/>
	</g>
</g>
<g>
</g>
<g>
</g>
<g>
</g>
<g>
</g>
<g>
</g>
<g>
</g>
<g>
</g>
<g>
</g>
<g>
</g>
<g>
</g>
<g>
</g>
<g>
</g>
<g>
</g>
<g>
</g>
<g>
</g>
</svg>
